<?xml version="1.0" encoding="UTF-8" standalone="no"?>
<!-- Created with Inkscape (http://www.inkscape.org/) -->
<svg
   xmlns:dc="http://purl.org/dc/elements/1.1/"
   xmlns:cc="http://web.resource.org/cc/"
   xmlns:rdf="http://www.w3.org/1999/02/22-rdf-syntax-ns#"
   xmlns:svg="http://www.w3.org/2000/svg"
   xmlns="http://www.w3.org/2000/svg"
   xmlns:xlink="http://www.w3.org/1999/xlink"
   xmlns:sodipodi="http://inkscape.sourceforge.net/DTD/sodipodi-0.dtd"
   xmlns:inkscape="http://www.inkscape.org/namespaces/inkscape"
   width="275"
   height="130"
   id="svg1325"
   sodipodi:version="0.32"
   inkscape:version="0.42+devel"
   version="1.0"
   sodipodi:docbase="/home/garrett"
   sodipodi:docname="tango-logo.svg">
  <defs
     id="defs1327">
    <linearGradient
       inkscape:collect="always"
       id="linearGradient2241">
      <stop
         style="stop-color:#1f2a47;stop-opacity:1"
         offset="0"
         id="stop2243" />
      <stop
         style="stop-color:#33436a;stop-opacity:1"
         offset="1"
         id="stop2245" />
    </linearGradient>
    <linearGradient
       inkscape:collect="always"
       xlink:href="#linearGradient2241"
       id="linearGradient2247"
       x1="7.8952551"
       y1="62.403065"
       x2="147.06944"
       y2="62.403065"
       gradientUnits="userSpaceOnUse"
       gradientTransform="matrix(0.947700,0.000000,0.000000,5.107755,-8.430045,-181.2394)" />
    <linearGradient
       inkscape:collect="always"
       id="linearGradient2231">
      <stop
         style="stop-color:#1f2a47;stop-opacity:0"
         offset="0"
         id="stop2233" />
      <stop
         style="stop-color:#33436a;stop-opacity:0"
         offset="1"
         id="stop2235" />
    </linearGradient>
    <linearGradient
       inkscape:collect="always"
       xlink:href="#linearGradient2231"
       id="linearGradient2237"
       x1="7"
       y1="44.033333"
       x2="124.13333"
       y2="44.033333"
       gradientUnits="userSpaceOnUse"
       gradientTransform="translate(113.8667,0.466667)" />
  </defs>
  <sodipodi:namedview
     id="base"
     pagecolor="#000000"
     bordercolor="#666666"
     borderopacity="1.0"
     inkscape:pageopacity="1"
     inkscape:pageshadow="2"
     inkscape:zoom="2.3376623"
     inkscape:cx="137.5"
     inkscape:cy="65"
     inkscape:document-units="px"
     inkscape:current-layer="layer1"
     inkscape:showpageshadow="false"
     showgrid="false"
     inkscape:window-width="994"
     inkscape:window-height="1090"
     inkscape:window-x="274"
     inkscape:window-y="22"
     inkscape:grid-bbox="true"
     inkscape:grid-points="true"
     gridspacingx="1px"
     gridspacingy="1px"
     gridoriginy="0px"
     gridoriginx="0px"
     gridtolerance="0.32pt"
     gridempspacing="10"
     showborder="false" />
  <metadata
     id="metadata1330">
    <rdf:RDF>
      <cc:Work
         rdf:about="">
        <dc:format>image/svg+xml</dc:format>
        <dc:type
           rdf:resource="http://purl.org/dc/dcmitype/StillImage" />
        <dc:title>Tango Project Logo</dc:title>
        <cc:license
           rdf:resource="http://creativecommons.org/licenses/by-sa/2.0/" />
        <dc:creator>
          <cc:Agent>
            <dc:title>Garrett LeSage</dc:title>
          </cc:Agent>
        </dc:creator>
      </cc:Work>
      <cc:License
         rdf:about="http://creativecommons.org/licenses/by-sa/2.0/">
        <cc:permits
           rdf:resource="http://web.resource.org/cc/Reproduction" />
        <cc:permits
           rdf:resource="http://web.resource.org/cc/Distribution" />
        <cc:requires
           rdf:resource="http://web.resource.org/cc/Notice" />
        <cc:requires
           rdf:resource="http://web.resource.org/cc/Attribution" />
        <cc:permits
           rdf:resource="http://web.resource.org/cc/DerivativeWorks" />
        <cc:requires
           rdf:resource="http://web.resource.org/cc/ShareAlike" />
      </cc:License>
    </rdf:RDF>
  </metadata>
  <g
     inkscape:label="Layer 1"
     inkscape:groupmode="layer"
     id="layer1">
    <rect
       style="opacity:1;color:#000000;fill:url(#linearGradient2247);fill-opacity:1;fill-rule:nonzero;stroke:none;stroke-width:2;stroke-linecap:round;stroke-linejoin:round;marker:none;marker-start:none;marker-mid:none;marker-end:none;stroke-miterlimit:4;stroke-dasharray:none;stroke-dashoffset:0;stroke-opacity:1;visibility:visible;display:inline;overflow:visible"
       id="rect2239"
       width="130"
       height="275"
       x="0"
       y="0"
       transform="matrix(0.000000,1.000000,1.000000,0.000000,0.000000,0.000000)" />
    <g
       id="g7"
       transform="translate(-15.77710,-82.97266)">
	<path
   d="M 244.89453,165.34375 C 246.19727,166.61328 246.84961,168.16211 246.84961,169.98828 C 246.84961,171.78125 246.18945,173.33984 244.86719,174.66016 C 243.54687,175.98047 241.99023,176.63867 240.19922,176.63867 C 238.4043,176.63867 236.86328,175.98047 235.57812,174.66016 C 234.29102,173.33984 233.64844,171.78125 233.64844,169.98828 C 233.64844,168.76953 233.93555,167.66211 234.51172,166.66211 C 235.08789,165.66602 235.87305,164.87891 236.87305,164.30273 C 237.86914,163.72852 238.97852,163.4375 240.19922,163.4375 C 242.02539,163.4375 243.5918,164.07422 244.89453,165.34375 z M 262.46094,106.76367 C 261.41211,105.61328 260.02148,105.03516 258.29297,105.03516 C 256.46289,105.03516 255.01367,105.61328 253.94727,106.76367 C 252.87695,107.91602 252.09766,109.22852 251.60547,110.70117 C 251.11523,112.17578 250.59766,114.19922 250.05664,116.77344 L 242.28125,155.81055 L 246.64844,155.81055 L 261.64844,119.77539 C 263.24023,116.28516 264.03906,113.52148 264.03906,111.49023 C 264.03906,109.49219 263.51172,107.91602 262.46094,106.76367 z "
   id="path9"
   style="fill:#f57900" />

	<path
   d="M 110.59375,164.81152 C 108.43262,166.00977 107.25879,165.99512 107.1499,162.10449 C 107.10596,160.53906 107.14014,158.96582 107.14014,157.40039 C 107.14014,153.74805 107.14014,150.0957 107.14014,146.44238 C 107.14014,143.24902 106.79248,140.91699 106.07959,139.31055 C 105.34619,137.66016 103.85791,136.19043 101.65674,134.94141 C 99.48584,133.71094 96.441406,133.08789 92.606445,133.08789 C 87.439453,133.08789 83.54541,134.12012 81.032715,136.15625 C 78.425293,138.26758 77.158691,140.25391 77.158691,142.22461 C 77.158691,144.41602 78.457031,145.67578 80.722168,145.67578 C 82.42627,145.67578 84.599121,144.75781 85.271973,140.39258 C 85.422852,139.5 85.885254,136.75 91.668457,136.75 C 93.659668,136.75 95.270996,137.14062 96.456543,137.91602 C 97.600586,138.66406 98.311523,139.49414 98.571289,140.38477 C 98.866211,141.41016 99.015137,143.13867 99.015137,145.52344 L 99.015137,146.66113 L 92.830078,149.17773 C 87.634766,151.32227 83.495605,153.56152 80.523926,155.83398 C 77.379395,158.23535 75.785156,161.1123 75.785156,164.38672 C 75.785156,166.95898 76.780762,169.05762 78.743652,170.62305 C 80.64502,172.14062 82.934082,172.91016 85.547852,172.91016 C 87.553711,172.91016 89.839355,172.3623 92.339355,171.2793 C 94.467285,170.35742 96.824707,169.01367 99.341797,167.31934 C 98.555664,167.84863 101.58691,170.60547 102.06055,170.83594 C 104.9585,172.24414 108.89844,170.79492 111.57617,169.49512 C 114.96338,167.85254 117.40674,166.90723 121.08203,165.93262 C 122.60449,160.72852 112.16602,163.94043 110.59375,164.81152 z M 99.015137,162.95508 C 96.974121,164.52832 95.103027,165.73926 93.461914,166.53711 C 91.79248,167.34863 90.326172,167.76074 89.104004,167.76074 C 87.82666,167.76074 86.825195,167.32129 86.040527,166.41699 C 85.223633,165.47363 84.825195,164.23828 84.825195,162.64062 C 84.825195,158.50098 88.422363,154.95703 95.514648,152.10645 C 95.515625,152.10645 97.60498,151.2627 99.015137,150.69238 L 99.015137,162.95508 L 99.015137,162.95508 z "
   id="path11"
   style="fill:#ffffff" />

	<path
   d="M 198.5,135.75391 C 198.5,138.39453 197.10742,139.91016 194.67969,139.91016 C 193.26758,139.91016 192.07617,139.08789 191.13672,137.46875 C 190.65039,136.63672 190.16211,136.16016 189.79687,136.16016 C 189.02148,136.16016 188.06836,136.71875 187.01758,137.78125 C 188.49414,140.33203 189.25,143.05273 189.25,145.88477 C 189.25,149.9209 187.77539,153.5293 184.86719,156.60547 C 181.95117,159.73047 177.05078,161.42969 170.29883,161.66016 C 164.38281,161.85352 161.125,162.96094 161.125,164.77539 C 161.125,165.08594 161.125,165.81055 162.74609,166.31641 C 164.14453,166.79492 167.24023,167.16406 171.94336,167.41016 C 177.24805,167.66992 181.40234,168.16797 184.28906,168.89453 C 187.33594,169.66211 189.80469,171.23242 191.62695,173.5625 C 193.45117,175.89258 194.375,178.69727 194.375,181.89844 C 194.375,186.40234 192.50391,190.08789 188.8125,192.85156 C 185.20898,195.54492 180.00586,196.91016 173.34766,196.91016 C 167.25586,196.91016 162.28125,195.70117 158.56445,193.31641 C 154.70703,190.83984 152.75,187.63672 152.75,183.79102 C 152.75,181.625 153.32812,179.80859 154.46484,178.39648 C 155.6543,176.91211 157.34766,176.16016 159.49609,176.16016 C 160.12109,176.16016 160.70117,176.26367 161.21875,176.46875 L 162.57422,177.00195 L 161.58789,178.07617 C 159.78711,180.03125 158.875,182.10938 158.875,184.25 C 158.875,186.71484 160.0293,188.71094 162.40234,190.35156 C 164.86133,192.04883 168.65039,192.91016 173.66797,192.91016 C 178.10352,192.91016 181.58398,192.03711 184.00781,190.31445 C 186.35742,188.64258 187.5,186.58398 187.5,184.02148 C 187.5,181.2168 186.5293,179.31055 184.53906,178.19531 C 182.36523,177.00781 178.33789,176.2793 172.57227,176.0332 C 165.47461,175.73633 160.94922,174.85156 158.74609,173.33398 C 156.42578,171.77539 155.25,169.71289 155.25,167.20312 C 155.25,163.11523 157.68359,160.33008 162.48633,158.89648 C 160.31055,157.36914 158.57813,155.66602 157.33594,153.81445 C 155.70313,151.38477 154.875,148.62891 154.875,145.62695 C 154.875,141.39844 156.57227,137.75781 159.91992,134.80664 C 163.23047,131.88867 167.20508,130.41016 171.73633,130.41016 C 176.9082,130.41016 181.18555,131.9707 184.49023,135.01172 C 187.15039,132.2168 189.9082,130.78516 192.70508,130.78516 C 194.48633,130.78516 195.91406,131.30078 196.94531,132.31836 C 197.97656,133.33789 198.5,134.49414 198.5,135.75391 z M 172.00977,157.53516 C 174.16602,157.53516 175.97266,156.71875 177.53125,155.04297 C 179.08594,153.36523 179.875,150.30957 179.875,145.95508 C 179.875,141.59766 179.04492,138.59375 177.40625,137.0332 C 175.73047,135.43555 173.90234,134.66016 171.81836,134.66016 C 169.20703,134.66016 167.31445,135.58398 166.03125,137.48242 C 164.68359,139.48047 164,142.60156 164,146.75977 C 164,150.55566 164.76953,153.33789 166.28516,155.0293 C 167.79297,156.71484 169.66602,157.53516 172.00977,157.53516 z "
   id="path13"
   style="fill:#ffffff" />

	<path
   d="M 228.50781,158.41895 C 228.50781,164.41602 226.67285,169.21289 223.05762,172.67383 C 219.45996,176.11719 215.0625,177.86133 209.98828,177.86133 C 204.90527,177.86133 200.5127,176.08594 196.92969,172.58398 C 193.33105,169.06836 191.50781,164.30273 191.50781,158.41895 C 191.50781,152.95898 193.30566,148.32617 196.85059,144.64648 C 200.39746,140.9668 204.81738,139.09961 209.98828,139.09961 C 215.18262,139.09961 219.61621,140.97266 223.16504,144.66895 C 226.70898,148.36523 228.50781,152.99219 228.50781,158.41895 z M 220.13184,158.62793 C 220.13184,152.85449 219.24512,148.7168 217.50098,146.3291 C 215.78418,143.98438 213.33301,142.84375 210.00684,142.84375 C 206.70508,142.84375 204.25977,143.97852 202.53027,146.3125 C 200.77441,148.68359 199.88184,152.82617 199.88184,158.62793 C 199.88184,164.44629 200.78711,168.54004 202.5752,170.79395 C 204.34668,173.03125 206.77637,174.11816 210.00684,174.11816 C 213.31543,174.11816 215.76465,173.0332 217.49512,170.80176 C 219.24512,168.54199 220.13184,164.44629 220.13184,158.62793 z "
   id="path15"
   style="fill:#ffffff" />

	<path
   d="M 122.6123,132.26172 C 122.29297,131.90039 121.91895,131.59863 121.49316,131.38379 C 119.58496,130.42188 117.25391,131.10547 115.35107,131.68848 C 115.08887,131.76855 110.32031,132.80957 110.32031,132.81055 C 110.32031,134.03125 110.32031,135.25391 110.32031,136.47656 C 111.57861,135.67578 114.93604,135.71875 115.25,137.48633 C 115.27637,137.63477 115.30566,137.86328 115.33203,138.20508 C 115.38184,139.40039 115.41797,141.23633 115.41797,144.06641 L 115.41797,154.20703 C 115.41797,159.78125 115.27148,161.60449 115.14746,162.14941 C 114.854,163.44336 113.52441,163.53613 112.67529,164.31738 C 112.26514,164.69434 111.90576,165.13379 111.53174,165.53809 C 111.1709,165.92969 110.64355,166.33496 110.46436,166.85449 C 110.17627,167.69043 110.68262,167.6709 111.35791,167.67773 C 112.56543,167.68945 113.77393,167.78516 114.98145,167.78516 C 117.65625,167.78516 120.33105,167.78516 123.00488,167.78516 C 125.02148,167.78516 127.03711,167.78516 129.05273,167.78516 L 130.00098,167.78516 L 130.00098,166.83594 L 130.00098,164.93945 L 130.00098,163.99023 L 129.05273,163.99023 C 126.5625,163.99023 125.50879,163.68164 125.06445,163.42187 C 124.50293,163.09375 124.18652,162.63477 124.06934,161.97461 C 123.96289,161.37891 123.83594,159.56836 123.83594,154.33008 C 123.85254,151.67871 123.87598,150.02637 123.88672,147.375 C 123.90137,143.59863 123.9209,139.82227 123.96289,136.04785 C 123.97754,134.75391 123.51074,133.27637 122.6123,132.26172 z "
   id="path17"
   style="fill:#ffffff" />

	<path
   d="M 154.78125,163.99023 C 152.34375,163.99023 151.30469,163.67969 150.86328,163.41992 C 150.30859,163.09375 150.00195,162.63672 149.89648,161.98047 C 149.75391,161.10547 149.68164,158.51758 149.68164,154.29102 L 149.68164,145.69336 C 149.68164,142.12695 149.4043,139.4668 148.83398,137.56055 C 148.22852,135.55273 146.88086,133.84375 144.82715,132.48828 C 142.80371,131.15039 140.20117,130.47266 137.09277,130.47266 C 134.36719,130.47266 131.71973,131.16211 129.22266,132.51563 C 127.39551,133.50977 116.47119,140.14844 116.47119,140.14844 C 116.50732,141.91699 117.94092,143.17969 117.97998,145.10156 C 117.97998,145.10156 127.33594,138.2666 129.03613,137.14453 C 130.85645,135.94336 132.78516,135.33398 134.76953,135.33398 C 136.45703,135.33398 137.85156,135.75391 138.91699,136.58008 C 139.98828,137.41016 140.62402,138.32227 140.8623,139.36133 C 141.12891,140.53711 141.26465,142.57031 141.26465,145.4043 L 141.26465,154.32617 C 141.26465,159.39063 141.19238,161.11914 141.13281,161.67773 C 141.06641,162.29492 140.79004,162.82617 140.28809,163.30078 C 140.06934,163.50977 139.28223,163.99023 136.67383,163.99023 L 135.81055,163.99023 L 134.8623,163.99023 L 134.8623,164.93945 L 134.8623,166.83594 L 134.8623,167.78516 L 135.81055,167.78516 L 154.78125,167.78516 L 158.72852,167.78516 L 158.72852,166.83594 L 158.72852,164.93945 L 158.72852,163.99023 L 154.78125,163.99023 L 154.78125,163.99023 z "
   id="path19"
   style="fill:#ffffff" />

	<path
   d="M 77.783203,164.43945 L 76.678711,163.7832 L 75.978516,164.86133 C 73.978516,167.9375 71.749023,169.43359 69.161133,169.43359 C 67.875977,169.43359 66.693359,169.01758 65.543945,168.16602 C 64.413086,167.32617 63.696289,166.24609 63.34668,164.86133 C 62.952148,163.29492 62.75293,160.11133 62.75293,155.39258 L 62.75293,125.47656 C 66.607422,125.06543 70.811523,124.65332 75.345703,124.24219 L 75.345703,118.21582 C 70.820801,118.62402 66.629394,119.03418 62.75293,119.44434 L 62.75293,106.84375 L 62.75293,105.50781 L 61.415039,105.50781 L 59.410156,105.50781 L 58.255859,105.50781 L 58.087891,106.64648 C 57.371094,111.48047 55.71875,115.26367 53.172852,117.89453 C 51.670898,119.44531 50.084961,120.52539 48.388672,121.16992 C 42.974121,121.92383 41.652344,122.03857 38.515137,122.78564 L 39.904785,128.62256 C 43.193847,127.83936 44.896972,127.68262 50.887695,126.88379 L 50.887695,153.44141 C 50.887695,159.69922 51.180664,163.97852 51.783203,166.52344 C 52.425781,169.24219 54.046875,171.63281 56.598633,173.62305 C 59.147461,175.60938 62.136719,176.61914 65.486328,176.61914 C 68.336914,176.61914 71.181641,175.84375 73.944336,174.31641 C 76.753906,172.75977 78.905273,170.42188 80.34082,167.36914 L 80.856445,166.27344 L 79.814453,165.65234 L 77.783203,164.43945 z "
   id="path21"
   style="fill:#ffffff" />

</g>
  </g>
</svg>
